<?xml version="1.0" standalone="no"?><!DOCTYPE svg PUBLIC "-//W3C//DTD SVG 1.1//EN" "http://www.w3.org/Graphics/SVG/1.1/DTD/svg11.dtd"><svg t="1734541715007" class="icon" viewBox="0 0 1024 1024" version="1.1" xmlns="http://www.w3.org/2000/svg" p-id="4056" xmlns:xlink="http://www.w3.org/1999/xlink" width="200" height="200"><path d="M687.042805 877.743426l-32.927108-75.25788s50.963378-61.586869 39.128223-177.506932c-11.814757-115.932303 46.622598-213.012398 165.610582-160.874072 105.280255 46.133036 9.456701 134.841625 9.456701 85.167426 0-46.838821-119.465307-73.34451-119.465307 43.770901 0 0 15.641498 207.255968-61.803091 284.700557z" fill="#D4A5A5" p-id="4057"></path><path d="M679.307729 811.983044s61.280892-47.993371 42.954964-218.964654c0 0-3.679873-103.905402 79.578263-111.758788 83.254056-7.837068 83.254056 44.594996 83.254056 44.594996s11.957546 9.028335 11.957546-12.887714c0 0 15.384478 50.889944-17.746614 50.889945 0 0-20.667665-66.494725-79.692494-52.252558 0 0-65.136191 6.107283-50.889944 138.407267 0 0-2.072478 166.165418-49.825147 213.914008l-19.59063-51.942502z" fill="#6E6E96" opacity=".2" p-id="4058"></path><path d="M608.455904 670.430343c-62.692462-90.503649-82.491155-110.726629-114.194358-159.384988-22.980845-35.285163-28.439458-43.126311-5.234231-54.606534 56.44647-27.933578-90.985052-50.567649-90.985052-50.56765-47.287586-47.275347-215.325578 92.119203-159.972462 88.724909 39.071108-2.390693 61.007554 30.487458 51.501896 39.984956-1.501323 1.489084-2.570199 3.426932-3.357577 5.674837-5.585084 4.471331-11.276239 10.284876-17.057148 17.705816 0 0-48.568606 76.579697 0 162.493705 48.556367 85.930327 39.217976 227.895076 39.217976 227.895076l63.512478 9.338391s42.155347-67.926693 8.722359-160.086694c46.161594 55.459187 136.673402 193.434008 172.464446 198.554008 54.390311 7.763633 131.169912-29.842869 131.169912-145.669099 0.00408-86.90945-26.097721-108.368574-75.788239-180.056733z" fill="#D4A5A5" p-id="4059"></path><path d="M580.436653 649.281275s73.752478 92.621004 64.336574 189.452239c-9.436303 96.839394-38.716175 76.322677-38.716175 76.322677s42.62451 38.051187 26.040605 60.220176c0 0 94.644526-65.189227 47.316144-177.6742-47.316143-112.468653-98.977147-148.320892-98.977148-148.320892z" fill="#BA9191" p-id="4060"></path><path d="M278.568797 715.127331s-38.708016-103.742215 37.072064-144.889881c75.792319-41.139506 158.907665-88.639235 264.803952 79.043825l-123.944797-185.715251-170.693865 38.059347s8.693801 24.049721-16.661418 56.336318c-25.359299 32.266199-33.0291 114.716558 9.424064 157.165642z" fill="#BA9191" p-id="4061"></path><path d="M385.986805 806.997673s23.04612 84.343331 3.683952 122.88408l-48.046406-24.013004s45.472127-28.137562 8.665243-125.597068c0 0-6.082805-19.394805 2.562039-26.689275 3.989928-3.357578 11.117131-11.586295 23.417371 0.722104l31.397227 31.393147c15.156016 15.147857-48.205514-119.245004-16.526789-167.536191 0 0 63.084112 194.613036 52.260717 261.727873" fill="#C29797" p-id="4062"></path><path d="M581.493291 900.503968s15.315124-152.881976-22.115952-228.86196c0 0 35.893036 138.900908-47.630279 252.605705 0.008159 0 43.236462-26.995251 69.746231-23.743745z" fill="#BA9191" p-id="4063"></path><path d="M413.622566 594.364685c55.993625-56.009944 154.407777 22.39745 154.407777 152.225148 0 121.439873-44.843857 162.514104-44.843857 162.514103 0 97.141291-63.508398 91.539888-63.508398 91.539889l-22.40969-67.241307c22.409689-140.088096-23.131793-237.8291-23.131792-237.8291s-29.398183-72.32051-0.51404-101.208733z" fill="#D4A5A5" p-id="4064"></path><path d="M453.583044 828.02843s-0.101992 35.990948 35.995028 35.990948 94.660845-224.929147-40.71114-276.663585c0 0 125.44612-3.377976 119.159331 159.246279-6.294948 162.644653-56.266964 177.645641-56.266964 177.645641s-25.567363-24.845259-66.078598-12.422629l7.902343-83.796654z" fill="#C29797" p-id="4065"></path><path d="M379.549068 933.737052c8.204239 21.459124-10.488861 45.663873-41.759618 54.096573-31.274837 8.408223-63.500239 7.29447-71.708558-14.168733-8.19608-21.459124 10.737721-55.161371 41.99216-63.569593 31.278916-8.404143 63.263618 2.182629 71.476016 23.641753zM522.256319 938.975363c8.289912 25.877418 2.664032 46.455331-31.331952 57.368478-33.987825 10.87643-83.478438 7.975777-91.760192-17.909801-8.310311-25.869259 12.528701-55.699888 46.512447-66.608956 34.008223-10.900908 68.293865 1.244303 76.579697 27.150279z" fill="#D4A5A5" p-id="4066"></path><path d="M417.188207 943.385498s-9.876908 28.16612 36.305084 20.932845c46.20647-7.212876 47.944414-40.070629 47.944414-40.07063s60.114104 42.016637-10.513338 72.079809c-70.623363 30.07541-108.303299-15.290645-73.73616-52.942024zM288.604813 933.712574s-19.880287 34.94655 21.985402 29.169721c41.86161-5.768669 41.86161-40.662183 41.86161-40.662183s41.094629-8.293992 7.221036 44.623553c-27.00341 33.388112-130.264223 26.044685-71.068048-33.131091z" fill="#C29797" p-id="4067"></path><path d="M613.144152 935.523145a44.219665 51.493737 62.276 1 0-91.164392 47.9111 44.219665 51.493737 62.276 1 0 91.164392-47.9111Z" fill="#D4A5A5" p-id="4068"></path><path d="M317.872446 865.998024v72.83455s46.728669 21.459124 46.72867-86.623873l-46.72867 13.789323zM453.493291 826.469992l-3.157673 115.07149 47.532366-9.248637s36.566183-75.474104 33.506422-161.322837-77.881116 55.499984-77.881115 55.499984z" fill="#D4A5A5" p-id="4069"></path><path d="M534.438247 942.406375s-9.827952 38.875283 26.787187 26.787187c36.631458-12.088096 39.499474-49.02961 25.999809-49.935299-13.511904-0.934247 58.066104-9.587251 33.824637 46.410454-24.233307 56.005865-135.971697 54.337275-86.611633-23.262342z" fill="#BA9191" p-id="4070"></path><path d="M534.438247 942.406375s45.459888-52.032255 49.988335-97.361594l37.157737 68.383617c0-0.00408-54.231203 94.697562-87.146072 28.977977z" fill="#D4A5A5" p-id="4071"></path><path d="M627.777275 906.337912s-13.430311 20.794135-44.182948 51.546773l18.844048 21.675347s40.947761-12.965227 53.815075-49.466136l-28.476175-23.755984z" fill="#BA9191" p-id="4072"></path><path d="M361.153785 896.020398l-8.722359 26.76271s-2.443729 21.132749-15.543585 29.769434c0 0 29.732717 5.24239 32.988302-3.818582 3.255586-9.065052 11.219124-55.512223 11.219124-55.512223l-19.941482 2.798661z" fill="#C29797" p-id="4073"></path><path d="M313.38056 147.251652a96.374311 91.221673 47.719 1 0-134.981482 122.741901 96.374311 91.221673 47.719 1 0 134.981482-122.741901Z" fill="#D4A5A5" p-id="4074"></path><path d="M650.802996 379.77753c-53.921147 139.341514-112.007649 189.815331-282.379219 170.400127-303.316143-34.550821-196.375458-188.685259-187.759171-238.359458 13.263044-76.379793 4.112319-88.696351 6.409179-97.957227C230.979315 36.774247 381.57259 29.557291 508.316048 66.788462c133.3811 39.189418 193.841976 180.317833 142.486948 312.989068z" fill="#D4A5A5" p-id="4075"></path><path d="M305.225434 541.585849c162.828239 23.641753 265.938104-67.996048 239.791427-177.825148-17.803729-74.87847 52.460622-133.12 9.134406-191.173864C476.506773 90.985052 414.07541 161.012781 351.297275 121.403155c-78.701131-66.262183-112.676717-20.296414-126.645546-8.404143C171.101833 201.707602 196.816064 232.541833 178.477896 301.476207c-31.352351 117.906869-56.944191 194.539602 126.747538 240.109642" fill="#F7DDCB" p-id="4076"></path><path d="M291.492758 252.359065a16.518629 22.601434 8.27 1 0-32.693712-4.752016 16.518629 22.601434 8.27 1 0 32.693712 4.752016Z" fill="#6E6E96" p-id="4077"></path><path d="M363.172758 269.44477a16.518629 23.470406 8.27 1 0-32.693712-4.752016 16.518629 23.470406 8.27 1 0 32.693712 4.752016Z" fill="#6E6E96" p-id="4078"></path><path d="M573.015713 257.79098c32.449785-145.061227-130.056159-131.218869-130.056159-131.218868 118.074135 17.15098 83.364207 68.820143 58.824924 237.792382-9.766757 67.220908-49.237673 118.041498-204.016701 109.331379 18.929721-6.870183 36.766088-42.526598 23.258263-79.957674l-99.870598-14.291123s-37.055745 25.204271-9.105848 62.659824C152.000765 383.62059 195.539124 265.020175 195.539124 265.020175c-102.306167 226.153052 16.922518 231.362805 84.506517 266.892749 67.584 35.517705 194.319299 2.509004 250.174216-57.809083 55.838598-60.330327 10.350151-71.247554 42.795856-216.312861z" fill="#D4A5A5" opacity=".15" p-id="4079"></path><path d="M321.091315 413.014693c-6.551968 22.299538-33.257562 34.089817-59.6531 26.334343-26.395538-7.751394-32.604813-30.197801-32.63745-53.447905-0.032637-24.229227 28.994295-31.764398 55.385753-24.004844 26.403697 7.751394 43.456765 28.822948 36.904797 51.118406z" fill="#A1A1C9" p-id="4080"></path><path d="M283.770897 389.512612a16.424797 10.888669 8.27 1 0-32.507998-4.725022 16.424797 10.888669 8.27 1 0 32.507998 4.725022Z" fill="#BCBCEB" p-id="4081"></path><path d="M529.66502 483.315761S708.848701 317.174821 623.624159 163.187251c0 0 146.970518 212.469801-95.958183 373.037896 0 0-92.780112 19.957801-162.261163 11.288478a247.824319 247.824319 0 0 1-9.905466-1.452366c-70.190916-12.124813 118.384191 12.940749 174.165673-62.745498z" fill="#6E6E96" opacity=".15" p-id="4082"></path><path d="M716.893833 345.173673c-3.169912 55.455108-48.564526 99.442231-101.392319 98.255044-52.840032-1.191267-73.593371-44.41141-70.443857-99.870597 3.153594-55.455108 29.035092-102.1389 81.854725-100.951714 52.852271 1.183108 93.126884 47.112159 89.981451 102.567267z" fill="#D4A5A5" p-id="4083"></path><path d="M674.55898 345.675474c-2.141833 37.496351-32.829195 67.237227-68.554964 66.43761-35.721689-0.811857-49.747633-30.030534-47.61804-67.526885s19.635506-69.064924 55.340877-68.257147c35.729849 0.799618 62.961721 31.850072 60.832127 69.346422z" fill="#B88686" opacity=".51" p-id="4084"></path></svg>