<?xml version="1.0" standalone="no"?><!DOCTYPE svg PUBLIC "-//W3C//DTD SVG 1.1//EN" "http://www.w3.org/Graphics/SVG/1.1/DTD/svg11.dtd"><svg t="1734541674927" class="icon" viewBox="0 0 1107 1024" version="1.1" xmlns="http://www.w3.org/2000/svg" p-id="3265" xmlns:xlink="http://www.w3.org/1999/xlink" width="216.2109375" height="200"><path d="M199.999829 634.651792l106.540816 376.187438h95.968332v-249.848437" fill="#FFE359" p-id="3266"></path><path d="M189.449278 637.643674l106.540817 376.187438a10.976082 10.976082 0 0 0 10.55055 7.975426h95.963945a10.967308 10.967308 0 0 0 10.967308-10.967308v-249.848437a10.967308 10.967308 0 1 0-21.934616 0v249.848437a10.967308 10.967308 0 0 1 10.967308-10.967308H306.540645a10.967308 10.967308 0 0 1 10.550551 7.962266l-106.540817-376.187438a10.971695 10.971695 0 0 0-13.538045-7.563056 10.99363 10.99363 0 0 0-7.563056 13.55998z" fill="#6E6E96" p-id="3267"></path><path d="M271.967304 848.505524s-0.583461-4.935289 0.486948-11.607798c2.237331-13.910933 11.699924-35.371762 48.773812-35.371762 54.83654 0 46.062694 198.337185 46.062694 198.337185h24.250911V792.058984l-57.437985-22.763745-86.444322-6.611093M819.073657 450.901127s30.217127-32.691352 89.809091-196.578028 80.77203-198.644269 122.991779-186.233664c42.210975 12.414993 56.727304 62.360113 27.374401 161.443161-8.471149 28.567644-107.922698 197.389609-200.71051 264.162967" fill="#FFC859" p-id="3268"></path><path d="M827.128048 458.341349c1.294142-1.399429 32.401815-36.20089 92.050809-200.271818l0.864224-2.386486c58.170602-159.973541 77.490611-186.259985 108.721118-177.073768 13.831969 4.071065 24.400067 12.6475 31.388435 25.501184 9.914446 18.218892 14.082023 48.874711-11.423548 122.307419-8.756299 25.198487-105.360734 192.708762-196.595576 258.376616a10.967308 10.967308 0 1 0 12.809816 17.806521c95.31468-68.589544 192.752632-240.916661 204.81667-269.949319 17.90742-43.092747 26.979578-107.216403 9.673166-139.021596-9.743356-17.898647-25.119522-30.366282-44.470241-36.060509-27.150668-7.9842-54.165341 1.184469-71.734968 31.642877-16.209681 28.107017-34.121489 77.367778-63.799024 158.97771l-0.864224 2.382099c-57.319539 157.657246-87.334867 192.638572-87.637565 192.971978l0.087739-0.092125a10.958534 10.958534 0 0 0 0.618556 15.498999 10.954147 10.954147 0 0 0 15.494613-0.609782z" fill="#6E6E96" p-id="3269"></path><path d="M178.920663 151.23479m-94.226724 0a94.226723 94.226723 0 1 0 188.453447 0 94.226723 94.226723 0 1 0-188.453447 0Z" fill="#FFC859" p-id="3270"></path><path d="M262.180078 151.23479c0 45.909151-37.350264 83.259415-83.259415 83.259416s-83.259415-37.350264-83.259416-83.259416 37.350264-83.259415 83.259416-83.259415 83.259415 37.345877 83.259415 83.259415z m-83.259415-105.198418c-58.003899 0-105.194031 47.190133-105.194032 105.194031s47.190133 105.194031 105.194032 105.194032 105.194031-47.190133 105.194031-105.194032-47.190133-105.194031-105.194031-105.194031z" fill="#6E6E96" p-id="3271"></path><path d="M516.731297 769.983986v235.889247h99.333102s32.270207-124.1587 57.122127-223.461094" fill="#FFE359" p-id="3272"></path><path d="M505.763989 769.983986v235.889247a10.967308 10.967308 0 0 0 10.967308 10.967308h99.333102c4.996706 0 9.357307-3.377931 10.616354-8.207933 0.315858-1.228338 32.568518-125.330009 57.130901-223.570767a10.971695 10.971695 0 1 0-21.280965-5.321338c-24.531675 98.126698-56.758012 222.131856-57.082644 223.373356a10.962921 10.962921 0 0 1 10.616354-8.207934h-99.333102a10.967308 10.967308 0 0 1 10.967308 10.967308v-235.889247a10.967308 10.967308 0 1 0-21.934616 0z" fill="#6E6E96" p-id="3273"></path><path d="M155.490106 637.494518s348.821811 355.174076 775.919493 54.72248c0 0 80.763256-227.738344-79.451566-282.285347-103.224303-29.545928-211.41899-22.351374-316.441931-22.215379-11.357744 0.166703-22.702328 0.223733-34.011816 0.280763-146.238085 0-282.728426 21.934616-282.728426 21.934616l-63.285754 227.562867" fill="#FFE359" p-id="3274"></path><path d="M645.136539 391.357419s51.177846 159.390081-109.67308 330.484472c-26.913774 28.6159 62.553138 33.336229 123.970062 20.171073s86.58909-17.249382 86.589091-17.249382l-2.013598 64.922076s-179.306712 69.60731-343.09249-3.505152v-67.834993c0.008774 0.004387 234.810064-272.778885 244.220015-326.988094z" fill="#FFC859" p-id="3275"></path><path d="M527.698605 881.227584s-7.484091-29.24323 54.555777-29.24323c62.053029 0-1.456459 142.917184-1.456459 142.917184h26.777779l45.242339-176.538563-125.119436 2.838339v60.02627zM786.97454 994.914699l78.964617-381.276269s59.916597-199.771709-108.225395-210.471414c0 0 237.977423-41.684544 174.748699 242.377507-63.224337 284.062051-97.885417 349.370177-97.885418 349.370176h-47.602503z" fill="#FFC859" p-id="3276"></path><path d="M147.668222 645.180408c3.632372 3.698176 90.568029 91.15149 231.866439 142.649582 130.730311 47.641986 333.686926 71.287502 558.183334-86.641734l2.855887-2.013597 1.171308-3.290193c1.873216-5.277469 45.330077-130.260911 1.728448-220.324444-17.718783-36.591326-47.321741-62.162702-87.992906-76.012218l-0.263215-0.087738-0.258829-0.074578c-88.194704-25.237969-179.982298-24.136851-268.769236-23.066442l-50.717219 0.429918-33.994268 0.280763c-145.430891 0-283.096928 21.851264-284.470035 22.074998l-6.9445 1.114278-1.88199 6.77341-63.268206 227.562867a10.967308 10.967308 0 0 0 21.131809 5.878477l63.268206-227.567254-8.826489 7.892075c1.359946-0.219346 137.367726-21.794234 280.991205-21.794235l34.169745-0.280763 50.813731-0.429918c87.198872-1.048475 177.363305-2.132045 262.460841 22.219766l-0.522044-0.162316c34.8892 11.879788 60.228069 33.660862 75.288376 64.746599 39.618303 81.745927-2.202235 202.281029-2.640928 203.49182l4.027196-5.30379c-414.682689 291.721619-758.354253-49.949508-761.776053-53.437112a10.967308 10.967308 0 1 0-15.630607 15.371779z" fill="#6E6E96" p-id="3277"></path><path d="M735.239554 765.017989v240.850857h99.337489s15.069081-60.587796 76.450911-230.537201c12.752786-35.310345 34.345222-113.937169 34.345222-154.038034" fill="#FFE359" p-id="3278"></path><path d="M333.463193 408.330424m-306.290591 0a306.290591 306.290591 0 1 0 612.581182 0 306.290591 306.290591 0 1 0-612.581182 0Z" fill="#FFC859" p-id="3279"></path><path d="M628.790863 408.330424c0 162.851363-132.480694 295.32767-295.323283 295.32767-162.842589 0-295.32767-132.476307-295.32767-295.32767 0-162.842589 132.485081-295.32767 295.32767-295.327669 162.838202 0 295.323283 132.485081 295.323283 295.327669z m-295.323283-317.262285c-174.937336 0-317.262286 142.320562-317.262286 317.262285 0 174.937336 142.320562 317.262286 317.262286 317.262286 174.937336 0 317.257899-142.320562 317.257899-317.262286 0-174.941723-142.320562-317.262286-317.257899-317.262285z" fill="#6E6E96" p-id="3280"></path><path d="M55.994688 367.38727a263.877817 252.186667 0 1 0 527.755634 0 263.877817 252.186667 0 1 0-527.755634 0Z" fill="#FFE359" p-id="3281"></path><path d="M499.223086 661.938455c-9.269569 91.305033-107.646321 104.689535-226.102021 92.660591-118.4557-12.015783-212.134058-44.904546-202.86449-136.218352 9.269569-91.305033 112.814117-155.577844 231.269817-143.566448 118.4557 12.046491 206.966263 95.819177 197.696694 187.124209z" fill="#D1D1E8" p-id="3282"></path><path d="M414.537921 537.30158c22.386469 24.878241 34.3189 55.371745 31.107672 87.032169-3.013816 29.624892-18.104832 48.681687-41.373073 60.14033-16.876494 8.317606-126.900527-97.345826-71.419109-3.018203 11.191041 19.039247-37.065114 17.402924-62.680359 14.788318-91.932363-9.330986-164.628067-34.836557-157.433513-105.711688 1.991663-19.631481 9.598588-37.648575 21.509085-53.244087 31.090125-40.710647 54.783897 43.55776 120.447363 55.867467 163.777004 30.708462 132.125353-86.663668 159.841934-55.854306z" fill="#F0F0FF" p-id="3283"></path><path d="M488.312808 660.828563c-2.500546 24.6238-11.954366 43.312093-28.892276 57.130901-32.669417 26.637398-93.244053 35.051516-185.185189 25.711757-91.936749-9.326599-149.585307-29.730179-176.235866-62.421531-13.818808-16.933524-19.324397-37.152853-16.82385-61.776652 8.646626-85.141405 107.001444-145.141354 219.249648-133.744128 112.23943 11.410387 196.529772 89.958247 187.887533 175.099653zM302.636284 463.917128c-124.281534-12.616791-233.41941 56.183325-243.289987 153.358061-3.075233 30.26977 4.207059 56.481636 21.649466 77.859113 30.940969 37.929338 91.638439 60.293872 191.01541 70.370635 99.385745 10.09431 163.338311 0.386049 201.263262-30.546146 21.381864-17.45118 33.779309-41.631901 36.854542-71.927993 9.870577-97.161575-83.215546-186.492492-207.492693-199.11367z" fill="#6E6E96" p-id="3284"></path><path d="M381.570193 522.65803c-5.505589 42.452256-45.619614 49.624875-95.880594 43.097133-50.265366-6.518968-89.541489-24.189495-79.859549-65.895973 10.620741-45.716127 43.627951-66.132867 93.880156-59.622673 50.265366 6.518968 87.348028 39.947323 81.859987 82.421513z" fill="#BEBED6" p-id="3285"></path><path d="M370.69501 521.249828c-1.460845 11.243684-5.746869 19.464778-13.108126 25.132683-13.016001 10.02412-36.731708 12.88878-70.484695 8.501857-34.665467-4.487822-57.828422-13.836356-66.983931-27.023447-4.803681-6.922565-5.983763-15.262106-3.60605-25.501185 9.252021-39.824489 36.77119-57.06071 81.789796-51.226102 46.422421 6.001311 76.867668 35.494596 72.393006 70.116194zM301.118408 429.361334c-56.450928-7.313001-94.086342 16.841398-105.974903 68.014858-3.807849 16.393932-1.465232 30.853231 6.948886 42.974299 13.151996 18.933961 40.030674 30.800588 82.175845 36.284242 40.29389 5.233599 68.650961 1.022153 86.698764-12.87562 12.03333-9.269569 19.258593-22.623363 21.473989-39.697268 6.110984-47.220841-32.296529-87.04533-91.322581-94.700511zM340.166412 181.27644v-16.078073H269.422888v16.078073h27.334919v13.007228h-27.334919v16.078073h27.334919v14.327691h-27.334919v16.078074h70.743524v-16.078074H312.831493v-14.327691h27.334919v-16.078073H312.831493v-13.007228z" fill="#6E6E96" p-id="3286"></path><path d="M470.414162 179.302325c0-59.938532 48.593948-108.53248 108.532479-108.53248 59.938532 0 108.53248 48.593948 108.53248 108.53248 0 59.942919-48.593948 108.53248-108.53248 108.53248" fill="#FFC859" p-id="3287"></path><path d="M221.535235 325.707113a30.651432 20.434288 90 1 0 40.868576 0 30.651432 20.434288 90 1 0-40.868576 0Z" fill="#6E6E96" p-id="3288"></path><path d="M328.975371 325.707113a30.651432 20.434288 90 1 0 40.868576 0 30.651432 20.434288 90 1 0-40.868576 0Z" fill="#6E6E96" p-id="3289"></path><path d="M500.359299 198.183642a83.825328 83.114647 90 1 0 166.229294 0 83.825328 83.114647 90 1 0-166.229294 0Z" fill="#FFE359" p-id="3290"></path><path d="M481.38147 179.302325c0-53.796839 43.768333-97.565172 97.565171-97.565172 53.801226 0 97.565172 43.768333 97.565172 97.565172 0 53.796839-43.768333 97.565172-97.565172 97.565172a10.967308 10.967308 0 1 0 0 21.934616c65.895973 0 119.499788-53.608201 119.499788-119.499788s-53.608201-119.499788-119.499788-119.499788c-65.891586 0-119.499788 53.608201-119.499787 119.499788a10.967308 10.967308 0 1 0 21.934616 0z" fill="#6E6E96" p-id="3291"></path><path d="M852.778388 680.89435l-65.803848 314.020349h56.358802l104.220134-373.616701z" fill="#FFC859" p-id="3292"></path><path d="M724.272246 765.017989v240.850857a10.967308 10.967308 0 0 0 10.967308 10.967308h99.337489a10.980469 10.980469 0 0 0 10.642676-8.317606c0.149155-0.609782 15.762215-62.329405 76.130665-229.458018 12.19126-33.779309 35.00326-114.744363 35.00326-157.775693 0-6.058341-4.908967-10.967308-10.967308-10.967308s-6.580385 4.908967-6.580385 10.967308h-4.386923c0 36.731708-19.921018 112.199948-33.700344 150.331084-60.868559 168.545589-76.148213 229.124612-76.771156 231.607611a10.9366 10.9366 0 0 1 10.642676-8.317607H735.248328a10.967308 10.967308 0 0 1 10.967308 10.967308v-240.84647c0-6.071502-4.908967-10.967308-10.967308-10.967308a10.958534 10.958534 0 0 0-10.976082 10.958534z" fill="#6E6E96" p-id="3293"></path><path d="M303.680372 490.940575c0 13.63017-11.787663 11.515673-26.32154 11.515674s-26.321539 2.11011-26.321539-11.515674 11.787663-24.676443 26.321539-24.676443 26.321539 11.046273 26.32154 24.676443z" fill="#F0F0FF" p-id="3294"></path><path d="M950.966503 174.292459s18.153088-61.504663 65.588888-61.504664c47.431414 0-38.096041 228.738563-98.705772 269.795777-60.627279 41.057214 33.116883-208.291113 33.116884-208.291113z" fill="#FFE359" p-id="3295"></path></svg>