<?xml version="1.0" standalone="no"?><!DOCTYPE svg PUBLIC "-//W3C//DTD SVG 1.1//EN" "http://www.w3.org/Graphics/SVG/1.1/DTD/svg11.dtd"><svg t="1734541630025" class="icon" viewBox="0 0 1164 1024" version="1.1" xmlns="http://www.w3.org/2000/svg" p-id="3091" xmlns:xlink="http://www.w3.org/1999/xlink" width="227.34375" height="200"><path d="M291.110329 220.508355s150.542687-190.648725 398.374801-167.245739c185.993393 17.573295 206.935371 492.295546 109.823734 404.489896C716.172583 382.574743 555.954291 43.4794 291.110329 220.508355z" fill="#EDC32D" p-id="3092"></path><path d="M345.598772 164.30282s201.840238-163.680549 361.207001-96.339647c0 0 71.196173 37.939789 87.726112 177.145923 0 138.204886-175.087283-125.698652-448.933113-80.806276z" fill="#FFE600" p-id="3093"></path><path d="M299.92037 227.460941c1.464441-1.852775 149.920416-185.558272 388.512047-163.025527 96.10571 9.07205 134.742629 151.974377 144.291908 195.566066 22.771359 103.872395 10.545848 185.689276-7.878974 196.375486-5.188707 3.017778-12.660632-2.119463-18.013095-6.947908-15.931062-14.410476-35.539602-39.88146-58.226745-69.376148-91.005899-118.264156-243.317144-316.202337-463.731923-168.878614l15.046782 16.286645z m491.860424 238.615024c19.734866 17.839982 34.992191 15.131 44.32625 9.717714 37.149084-21.550212 38.604168-129.090728 18.54647-220.601929-27.693379-126.344316-89.040834-206.013662-164.110992-213.101931-251.013648-23.702426-406.698254 169.505563-408.242234 171.46127l15.046783 16.281966c202.958453-135.669017 341.677999 44.611652 433.465245 163.90045 23.3562 30.360253 43.530866 56.575154 60.968478 72.34246z" fill="#6E6E96" p-id="3094"></path><path d="M690.397482 235.162124c-97.186496-96.044887-271.67958-191.004309-458.805226-19.281029-31.745156 29.12039-56.182141 72.136597-65.001539 112.73858-27.478158 126.433212-187.565445 156.447239-144.165583 265.265047 17.465684 43.792875 114.170271 44.022133 156.746677 146.893281 68.604159 165.795333 341.275629 258.031737 594.090586 39.493126 0 0 112.2286-148.044247 174.160895-67.747952 61.922938 80.296295 183.8365 213.167434 183.836501-95.474082 0-269.826805-57.894555-170.36177-144.975003-130.22298-87.075769 40.152826-100.775078 75.145018-214.954707-138.134705-0.023394 0.009357-26.271046-59.504037-80.932601-113.529286z" fill="#FFE600" p-id="3095"></path><path d="M180.566071 399.469623c8.55739-40.601984 32.250458-83.613512 63.013081-112.738581 181.398884-171.727958 350.544185-76.763857 444.769048 19.290387 52.995929 54.015891 78.443519 113.529285 78.443519 113.529285 110.670584 213.279723 123.958166 178.29221 208.376418 138.144063 84.408895-40.148147 140.53957-139.608504 140.539571 130.218301 0 30.505293-1.169681 56.631299-3.30786 78.986252 10.882717-30.233927 17.484399-78.083258 17.484399-149.817484 0-269.84552-57.899234-170.375806-144.989039-130.232337-87.061733 40.157505-100.7704 75.149696-214.950028-138.139384 0 0-26.238295-59.513394-80.909208-113.538643-97.195853-96.044887-271.684259-191.008987-458.805225-19.285709-31.745156 29.12039-56.182141 72.131918-65.006218 112.738581-27.478158 126.433212-187.560766 156.44256-144.165583 265.265047 2.849344 7.144415 7.841545 12.754207 14.330937 17.596688 15.028068-74.026802 123.331216-108.312506 145.176188-212.016466z" fill="#FFFFD6" opacity=".51" p-id="3096"></path><path d="M1119.160607 470.94184c14.854955 319.004893-148.226717 250.653386-134.95785 185.562951 13.259509-65.099793-14.780095-96.264787-14.780095-96.264787-35.773539-13.339048-55.246396-28.142537-63.064548-43.250143-33.892691-1.366188-66.203972-39.680275-135.051424-168.289094 0 0-26.242974-59.513394-80.909208-113.533964-97.186496-96.044887-271.67958-191.008987-458.805226-19.28103-31.745156 29.12039-56.182141 72.131918-65.001539 112.738581-27.478158 126.428533-187.565445 156.44256-144.165583 265.265047 17.465684 43.792875 114.170271 44.022133 156.741998 146.89328 68.604159 165.795333 341.280308 258.031737 594.085908 39.493126 0 0 112.233278-148.044247 174.165573-67.747952 61.927617 80.296295 183.8365 213.167434 183.836501-95.474082-0.014036-72.782261-4.234247-118.657169-12.094507-146.111933z" fill="#EDC32D" p-id="3097"></path><path d="M324.240388 849.202798s263.856751 269.139032 405.935622 101.664037c142.078871-167.493711 79.98282-303.747568-7.82283-221.860507-87.791614 81.887062-166.848046 158.505878-398.112792 120.19647z" fill="#EDC32D" p-id="3098"></path><path d="M316.22573 857.058379c6.601682 6.728008 163.301572 164.864267 304.018934 159.801885 46.988445-1.684341 86.855869-21.456637 118.484057-58.750762 92.301906-108.799093 105.935713-213.424763 65.796923-251.720135-17.779159-16.960382-50.712711-22.092944-89.822181 14.39644l-2.924204 2.723018c-87.169343 81.34433-162.450044 151.586042-385.700132 114.610071l-33.916084-5.614471 24.062687 24.553954z m413.781846-119.850244c23.519955-21.938546 45.580148-27.389262 59.01277-14.564874 27.805668 26.533055 19.856513 118.077007-67.411084 220.96687-27.379904 32.264494-61.735789 49.374595-102.155302 50.825-130.793784 4.739549-285.659614-151.506504-287.203593-153.087914l0.608234 0.678415-10.456952 18.25171c234.151519 38.786638 316.983684-38.505915 404.69108-120.346189l2.914847-2.723018z" fill="#6E6E96" p-id="3099"></path><path d="M771.30669 348.696088s-26.242974-59.513394-80.909208-113.533964c-97.186496-96.044887-271.67958-191.004309-458.805226-19.281029-31.745156 29.12039-56.182141 72.131918-65.001539 112.73858-35.024943 161.158716-191.359892 121.380188-144.170262 265.265047 14.695878 44.798801 114.17495 44.022133 156.746677 146.893281 68.594801 165.795333 341.275629 258.031737 594.085908 39.493126 0 0 27.422013-31.674975 62.638783-58.558935 38.721136-51.2648 105.87489-23.875539 121.071391-69.22175 37.359627-105.500592-21.784148-136.946309-36.20866-136.946309-39.984392 9.020584-71.004345-20.315028-149.447864-166.848047z" fill="#FFE600" p-id="3100"></path><path d="M176.186784 416.027634c8.824077-40.606663 23.669675-93.200221 55.419509-122.325291 187.139681-171.723279 442.55601-32.83062 539.765899 132.814994 54.666234 54.02057 0 0 0 0 78.448198 146.533018 117.866464 139.234206 157.846177 130.227659 14.592946 0 26.336548 1.300686 35.787575 3.752338-10.012474-33.158131-35.464743-44.925127-44.279462-44.925127-39.960998 9.001869-70.98563-20.338422-149.42915-166.87144 0 0-26.247653-59.513394-80.909208-113.533964-97.191174-96.044887-271.684259-191.004309-458.805225-19.28103-31.745156 29.129748-56.182141 72.131918-65.00154 112.74326-34.585142 159.137506-187.448477 122.007137-145.826531 259.973408 0.009357-136.838698 129.366773-52.682454 155.431956-172.574807z" fill="#FFFFD6" opacity=".51" p-id="3101"></path><path d="M884.180953 643.165743c-37.294125 26.883959-66.316262 58.558934-66.316261 58.558934-267.660555 218.538611-556.351983 126.29285-628.979846-39.493126-44.883018-102.431347-193.455961 1.824703-165.715795-146.336512-7.200559 19.706794-7.368993 44.157816 3.733623 78.008398 14.6912 44.80348 114.17495 44.026811 156.741999 146.893281 68.59948 165.795333 341.280308 258.031737 594.095265 39.493125 0 0 27.412655-31.674975 62.634104-58.558934 38.725815-51.2648 105.87489-23.875539 121.071392-69.22175 6.667184-18.822515 10.218337-35.258879 11.542417-49.608532-28.02089 7.008731-63.948826 9.174982-88.806898 40.265116z" fill="#E3AA00" opacity=".54" p-id="3102"></path><path d="M925.232095 564.216921c-64.168727 0-121.712377 34.416708-121.712377 34.416708-265.87796 237.356447-478.867602 80.067037-614.630194 5.979412C90.74389 551.060344-4.566437 649.079653 23.159694 515.904397c-7.186523 19.706794-12.333122 44.153137-1.235184 77.985004 14.695878 44.798801 116.023046 47.1522 158.599452 150.018669 68.59948 165.804691 344.405697 254.901669 597.215976 36.363059 0 0 27.412655-31.670296 62.638783-58.554256 38.721136-51.2648 105.87489-23.875539 121.071392-69.22175 14.597625-41.233612 14.43387-71.121313 7.977227-92.273834-10.578599-5.432001-24.741103 3.995632-44.195245 3.995632z" fill="#E3AA00" opacity=".35" p-id="3103"></path><path d="M388.006744 905.12761s196.979042 17.55458 280.82649-28.156573c142.195839-77.507774 81.068285 54.132859-53.87553 76.319378-89.031476 14.644412-226.95096-48.162805-226.95096-48.162805z" fill="#FFE600" p-id="3104"></path><path d="M698.276456 227.180218c-71.743584-70.906092-261.592247-214.753522-474.277772-19.571111C191.172743 237.726066 164.971877 283.179889 155.619104 326.238204 144.10476 379.215418 107.952244 402.945916 72.992804 439.341725c-45.163742 47.021196-87.829044 91.436341-61.001229 158.711742 8.636928 21.648465 30.439791 31.043347 55.690875 41.926064 34.360563 14.812846 77.128797 47.156879 101.107268 105.1029 33.27042 80.413263 110.932593 142.116301 207.740111 165.07013 131.486236 31.169672 278.758493-13.067682 404.050095-121.37083l0.893637-0.77199 0.701809-0.931066c18.368678-24.189013 75.743895-87.010267 120.12161-87.18338 14.199933-0.056145 26.046467 6.334995 36.208661 19.496251 39.235796 50.881145 96.943202 116.631281 144.900143 100.283813 39.731741-13.544912 59.0502-79.819065 59.0502-202.607549 0-139.135953-15.159072-176.008992-37.911717-188.571372-22.54678-12.445411-48.317203 3.789768-78.153438 22.579532-14.265435 8.987833-29.017458 18.279782-44.845588 25.569237-8.379598 3.869306-15.893632 7.593572-23.183088 11.196192-62.213019 30.800053-78.939464 39.072041-177.173994-144.43695l-5.151277-9.628818-9.764502 4.879912 8.772612-0.533375 6.465999 5.937303c-2.868059-6.414533-29.63505-63.911397-83.234535-116.879253z m63.139407 126.807509c103.872395 194.045481 130.517739 191.776298 206.926013 153.962836 7.139736-3.532438 14.522765-7.191202 22.626319-10.920147 17.147531-7.907047 33.218954-18.03181 47.400172-26.958819 22.836861-14.382404 44.401109-27.974103 55.349329-21.933867 17.451648 9.638175 26.308476 66.47066 26.308476 168.916043 0 144.797211-27.4688 175.779734-43.844341 181.366134-17.465684 5.946661-52.453197-5.305675-119.882996-92.737028-14.518087-18.813157-32.713652-28.325007-54.095429-28.231432-64.528988 0.271366-134.925099 92.142829-137.89609 96.049565l1.61416-1.703056c-119.780063 103.540206-259.814331 146.004322-384.193582 116.509634-89.817502-21.297561-161.659339-78.050506-192.183348-151.805943-27.464121-66.372406-76.880825-101.579819-112.963159-117.131904-21.526818-9.273235-38.533987-16.609477-43.727373-29.630372-21.465995-53.842778 12.866496-89.583566 56.341218-134.840882 35.389883-36.849646 75.509958-64.70678 88.367097-123.887985 8.421707-38.763245 32.035237-79.706775 61.6235-106.848064 80.810955-74.162485 166.118165-103.774142 253.544838-87.997478 82.415758 14.864312 148.689911 66.381764 189.783161 106.993105 51.573596 50.974719 77.465666 107.70895 78.546452 110.095101l1.965065 4.365251c0.023394 0.060823 4.529007 1.660948 4.529006 1.660948l4.505613 1.600124 4.276356-2.138178-14.920457-4.753586z" fill="#6E6E96" p-id="3105"></path><path d="M229.285644 436.796498m-20.202738 0a20.202739 20.202739 0 1 0 40.405477 0 20.202739 20.202739 0 1 0-40.405477 0Z" fill="#6E6E96" p-id="3106"></path></svg>